<svg xmlns="http://www.w3.org/2000/svg" xmlns:xlink="http://www.w3.org/1999/xlink" width="500" zoomAndPan="magnify" viewBox="0 0 375 374.999991" height="500" preserveAspectRatio="xMidYMid meet" version="1.0"><path fill="#ffffff" d="M 187.5 0 C 84.113281 0 0 84.105469 0 187.5 C 0 290.894531 84.113281 375 187.5 375 C 290.886719 375 375 290.894531 375 187.5 C 375 159.578125 368.816406 133.078125 357.820312 109.242188 C 350.277344 121.558594 338.546875 131.035156 324.574219 135.578125 C 330.722656 151.75 334.238281 169.199219 334.238281 187.5 C 334.238281 268.410156 268.410156 334.238281 187.5 334.238281 C 106.589844 334.238281 40.761719 268.410156 40.761719 187.5 C 40.761719 106.589844 106.589844 40.761719 187.5 40.761719 C 209.511719 40.761719 230.320312 45.761719 249.070312 54.484375 C 254.574219 40.953125 264.785156 29.851562 277.667969 23.167969 C 250.894531 8.410156 220.164062 0 187.5 0 Z M 305.707031 32.609375 C 304.238281 32.609375 302.773438 32.679688 301.3125 32.824219 C 299.851562 32.96875 298.398438 33.183594 296.960938 33.46875 C 295.519531 33.757812 294.097656 34.113281 292.691406 34.539062 C 291.285156 34.964844 289.90625 35.460938 288.546875 36.023438 C 287.191406 36.582031 285.867188 37.210938 284.570312 37.902344 C 283.277344 38.59375 282.015625 39.347656 280.796875 40.164062 C 279.574219 40.980469 278.398438 41.855469 277.261719 42.785156 C 276.128906 43.71875 275.039062 44.703125 274.003906 45.742188 C 272.964844 46.78125 271.980469 47.867188 271.046875 49 C 270.117188 50.136719 269.242188 51.316406 268.425781 52.535156 C 267.609375 53.757812 266.855469 55.015625 266.164062 56.308594 C 265.472656 57.605469 264.84375 58.929688 264.28125 60.289062 C 263.71875 61.644531 263.226562 63.023438 262.800781 64.429688 C 262.375 65.835938 262.015625 67.257812 261.730469 68.699219 C 261.445312 70.136719 261.230469 71.589844 261.085938 73.050781 C 260.941406 74.511719 260.871094 75.976562 260.871094 77.445312 C 260.871094 78.914062 260.941406 80.378906 261.085938 81.839844 C 261.230469 83.300781 261.445312 84.753906 261.730469 86.191406 C 262.015625 87.632812 262.375 89.054688 262.800781 90.460938 C 263.226562 91.867188 263.71875 93.246094 264.28125 94.605469 C 264.84375 95.960938 265.472656 97.285156 266.164062 98.582031 C 266.855469 99.875 267.609375 101.132812 268.425781 102.355469 C 269.242188 103.578125 270.117188 104.753906 271.046875 105.890625 C 271.980469 107.023438 272.964844 108.113281 274.003906 109.148438 C 275.039062 110.1875 276.128906 111.171875 277.261719 112.105469 C 278.398438 113.035156 279.574219 113.910156 280.796875 114.726562 C 282.015625 115.542969 283.277344 116.296875 284.570312 116.988281 C 285.867188 117.679688 287.191406 118.308594 288.546875 118.871094 C 289.90625 119.429688 291.285156 119.925781 292.691406 120.351562 C 294.097656 120.777344 295.519531 121.132812 296.960938 121.421875 C 298.398438 121.707031 299.851562 121.921875 301.3125 122.066406 C 302.773438 122.210938 304.238281 122.28125 305.707031 122.28125 C 307.175781 122.28125 308.640625 122.210938 310.101562 122.066406 C 311.5625 121.921875 313.011719 121.707031 314.453125 121.421875 C 315.894531 121.132812 317.316406 120.777344 318.722656 120.351562 C 320.128906 119.925781 321.507812 119.429688 322.863281 118.871094 C 324.222656 118.308594 325.546875 117.679688 326.84375 116.988281 C 328.136719 116.296875 329.394531 115.542969 330.617188 114.726562 C 331.835938 113.910156 333.015625 113.035156 334.152344 112.105469 C 335.285156 111.171875 336.371094 110.1875 337.410156 109.148438 C 338.449219 108.113281 339.433594 107.023438 340.367188 105.890625 C 341.296875 104.753906 342.171875 103.578125 342.988281 102.355469 C 343.804688 101.132812 344.558594 99.875 345.25 98.582031 C 345.941406 97.285156 346.570312 95.960938 347.128906 94.605469 C 347.691406 93.246094 348.1875 91.867188 348.613281 90.460938 C 349.039062 89.054688 349.394531 87.632812 349.683594 86.191406 C 349.96875 84.753906 350.183594 83.300781 350.328125 81.839844 C 350.472656 80.378906 350.542969 78.914062 350.542969 77.445312 C 350.542969 75.976562 350.472656 74.511719 350.328125 73.050781 C 350.183594 71.589844 349.96875 70.136719 349.683594 68.699219 C 349.394531 67.257812 349.039062 65.835938 348.613281 64.429688 C 348.1875 63.023438 347.691406 61.644531 347.128906 60.289062 C 346.570312 58.929688 345.941406 57.605469 345.25 56.308594 C 344.558594 55.015625 343.804688 53.757812 342.988281 52.535156 C 342.171875 51.316406 341.296875 50.136719 340.367188 49 C 339.433594 47.867188 338.449219 46.78125 337.410156 45.742188 C 336.371094 44.703125 335.285156 43.71875 334.152344 42.785156 C 333.015625 41.855469 331.835938 40.980469 330.617188 40.164062 C 329.394531 39.347656 328.136719 38.59375 326.84375 37.902344 C 325.546875 37.210938 324.222656 36.582031 322.863281 36.023438 C 321.507812 35.460938 320.128906 34.964844 318.722656 34.539062 C 317.316406 34.113281 315.894531 33.757812 314.453125 33.46875 C 313.011719 33.183594 311.5625 32.96875 310.101562 32.824219 C 308.640625 32.679688 307.175781 32.609375 305.707031 32.609375 Z M 187.5 105.976562 C 186.164062 105.976562 184.832031 106.011719 183.5 106.078125 C 182.167969 106.140625 180.835938 106.238281 179.507812 106.371094 C 178.183594 106.5 176.859375 106.664062 175.539062 106.859375 C 174.21875 107.054688 172.90625 107.285156 171.597656 107.542969 C 170.289062 107.804688 168.984375 108.097656 167.691406 108.421875 C 166.398438 108.746094 165.113281 109.101562 163.835938 109.488281 C 162.558594 109.875 161.292969 110.292969 160.035156 110.742188 C 158.78125 111.191406 157.535156 111.671875 156.304688 112.183594 C 155.070312 112.695312 153.851562 113.234375 152.644531 113.804688 C 151.4375 114.375 150.246094 114.976562 149.070312 115.605469 C 147.894531 116.234375 146.734375 116.890625 145.589844 117.578125 C 144.445312 118.261719 143.316406 118.976562 142.207031 119.71875 C 141.101562 120.457031 140.007812 121.226562 138.9375 122.019531 C 137.867188 122.816406 136.816406 123.636719 135.78125 124.484375 C 134.75 125.328125 133.742188 126.199219 132.753906 127.097656 C 131.765625 127.992188 130.796875 128.910156 129.855469 129.855469 C 128.910156 130.796875 127.992188 131.765625 127.097656 132.753906 C 126.199219 133.742188 125.328125 134.75 124.484375 135.78125 C 123.636719 136.816406 122.816406 137.867188 122.019531 138.9375 C 121.226562 140.007812 120.457031 141.101562 119.71875 142.207031 C 118.976562 143.316406 118.261719 144.445312 117.578125 145.589844 C 116.890625 146.734375 116.234375 147.894531 115.605469 149.070312 C 114.976562 150.246094 114.375 151.4375 113.804688 152.644531 C 113.234375 153.851562 112.695312 155.070312 112.183594 156.304688 C 111.671875 157.535156 111.191406 158.78125 110.742188 160.035156 C 110.292969 161.292969 109.875 162.558594 109.488281 163.835938 C 109.101562 165.113281 108.746094 166.398438 108.421875 167.691406 C 108.097656 168.984375 107.804688 170.289062 107.542969 171.597656 C 107.285156 172.90625 107.054688 174.21875 106.859375 175.539062 C 106.664062 176.859375 106.5 178.183594 106.371094 179.507812 C 106.238281 180.835938 106.140625 182.167969 106.078125 183.5 C 106.011719 184.832031 105.976562 186.164062 105.976562 187.5 C 105.976562 188.835938 106.011719 190.167969 106.078125 191.5 C 106.140625 192.832031 106.238281 194.164062 106.371094 195.492188 C 106.5 196.816406 106.664062 198.140625 106.859375 199.460938 C 107.054688 200.78125 107.285156 202.09375 107.542969 203.402344 C 107.804688 204.710938 108.097656 206.015625 108.421875 207.308594 C 108.746094 208.601562 109.101562 209.886719 109.488281 211.164062 C 109.875 212.441406 110.292969 213.707031 110.742188 214.964844 C 111.191406 216.21875 111.671875 217.464844 112.183594 218.695312 C 112.695312 219.929688 113.234375 221.148438 113.804688 222.355469 C 114.375 223.5625 114.976562 224.753906 115.605469 225.929688 C 116.234375 227.105469 116.890625 228.265625 117.578125 229.410156 C 118.261719 230.554688 118.976562 231.683594 119.71875 232.789062 C 120.457031 233.898438 121.226562 234.992188 122.019531 236.0625 C 122.816406 237.132812 123.636719 238.183594 124.484375 239.21875 C 125.328125 240.25 126.199219 241.257812 127.097656 242.246094 C 127.992188 243.234375 128.910156 244.199219 129.855469 245.144531 C 130.796875 246.089844 131.765625 247.007812 132.753906 247.902344 C 133.742188 248.800781 134.75 249.671875 135.78125 250.515625 C 136.816406 251.363281 137.867188 252.183594 138.9375 252.980469 C 140.007812 253.773438 141.097656 254.542969 142.207031 255.28125 C 143.316406 256.023438 144.445312 256.738281 145.589844 257.421875 C 146.734375 258.109375 147.894531 258.765625 149.070312 259.394531 C 150.246094 260.023438 151.4375 260.625 152.644531 261.195312 C 153.851562 261.765625 155.070312 262.304688 156.304688 262.816406 C 157.535156 263.328125 158.78125 263.808594 160.035156 264.257812 C 161.292969 264.707031 162.558594 265.125 163.835938 265.511719 C 165.113281 265.898438 166.398438 266.253906 167.691406 266.578125 C 168.984375 266.902344 170.289062 267.195312 171.597656 267.457031 C 172.90625 267.714844 174.21875 267.945312 175.539062 268.140625 C 176.859375 268.335938 178.183594 268.5 179.507812 268.628906 C 180.835938 268.761719 182.167969 268.859375 183.5 268.921875 C 184.832031 268.988281 186.164062 269.023438 187.5 269.023438 C 188.835938 269.023438 190.167969 268.988281 191.5 268.921875 C 192.832031 268.859375 194.164062 268.761719 195.492188 268.628906 C 196.816406 268.5 198.140625 268.335938 199.460938 268.140625 C 200.78125 267.945312 202.09375 267.714844 203.402344 267.457031 C 204.710938 267.195312 206.015625 266.902344 207.308594 266.578125 C 208.601562 266.253906 209.886719 265.898438 211.164062 265.511719 C 212.441406 265.125 213.707031 264.707031 214.964844 264.257812 C 216.21875 263.808594 217.464844 263.328125 218.695312 262.816406 C 219.929688 262.304688 221.148438 261.765625 222.355469 261.195312 C 223.5625 260.625 224.753906 260.023438 225.929688 259.394531 C 227.105469 258.765625 228.265625 258.109375 229.410156 257.421875 C 230.554688 256.738281 231.683594 256.023438 232.789062 255.28125 C 233.898438 254.542969 234.992188 253.773438 236.0625 252.980469 C 237.132812 252.183594 238.183594 251.363281 239.21875 250.515625 C 240.25 249.671875 241.257812 248.800781 242.246094 247.902344 C 243.234375 247.007812 244.199219 246.089844 245.144531 245.144531 C 246.089844 244.199219 247.007812 243.234375 247.902344 242.246094 C 248.800781 241.257812 249.671875 240.25 250.515625 239.21875 C 251.363281 238.183594 252.183594 237.132812 252.980469 236.0625 C 253.773438 234.992188 254.542969 233.898438 255.28125 232.789062 C 256.023438 231.683594 256.738281 230.554688 257.421875 229.410156 C 258.109375 228.265625 258.765625 227.105469 259.394531 225.929688 C 260.023438 224.753906 260.625 223.5625 261.195312 222.355469 C 261.765625 221.148438 262.304688 219.929688 262.816406 218.695312 C 263.328125 217.464844 263.808594 216.21875 264.257812 214.964844 C 264.707031 213.707031 265.125 212.441406 265.511719 211.164062 C 265.898438 209.886719 266.253906 208.601562 266.578125 207.308594 C 266.902344 206.015625 267.195312 204.710938 267.457031 203.402344 C 267.714844 202.09375 267.945312 200.78125 268.140625 199.460938 C 268.335938 198.140625 268.5 196.816406 268.628906 195.492188 C 268.761719 194.164062 268.859375 192.832031 268.921875 191.5 C 268.988281 190.167969 269.023438 188.835938 269.023438 187.5 C 269.023438 186.164062 268.988281 184.832031 268.921875 183.5 C 268.859375 182.167969 268.761719 180.835938 268.628906 179.507812 C 268.5 178.183594 268.335938 176.859375 268.140625 175.539062 C 267.945312 174.21875 267.714844 172.90625 267.457031 171.597656 C 267.195312 170.289062 266.902344 168.984375 266.578125 167.691406 C 266.253906 166.398438 265.898438 165.113281 265.511719 163.835938 C 265.125 162.558594 264.707031 161.292969 264.257812 160.035156 C 263.808594 158.78125 263.328125 157.535156 262.816406 156.304688 C 262.304688 155.070312 261.765625 153.851562 261.195312 152.644531 C 260.625 151.4375 260.023438 150.246094 259.394531 149.070312 C 258.765625 147.894531 258.109375 146.734375 257.421875 145.589844 C 256.738281 144.445312 256.023438 143.316406 255.28125 142.207031 C 254.542969 141.097656 253.773438 140.007812 252.980469 138.9375 C 252.183594 137.867188 251.363281 136.816406 250.515625 135.78125 C 249.671875 134.75 248.800781 133.742188 247.902344 132.753906 C 247.007812 131.765625 246.089844 130.796875 245.144531 129.855469 C 244.199219 128.910156 243.234375 127.992188 242.246094 127.097656 C 241.257812 126.199219 240.25 125.328125 239.21875 124.484375 C 238.183594 123.636719 237.132812 122.816406 236.0625 122.019531 C 234.992188 121.226562 233.898438 120.457031 232.789062 119.71875 C 231.683594 118.976562 230.554688 118.261719 229.410156 117.578125 C 228.265625 116.890625 227.105469 116.234375 225.929688 115.605469 C 224.753906 114.976562 223.5625 114.375 222.355469 113.804688 C 221.148438 113.234375 219.929688 112.695312 218.695312 112.183594 C 217.464844 111.671875 216.21875 111.191406 214.964844 110.742188 C 213.707031 110.292969 212.441406 109.875 211.164062 109.488281 C 209.886719 109.101562 208.601562 108.746094 207.308594 108.421875 C 206.015625 108.097656 204.710938 107.804688 203.402344 107.542969 C 202.09375 107.285156 200.78125 107.054688 199.460938 106.859375 C 198.140625 106.664062 196.816406 106.5 195.492188 106.371094 C 194.164062 106.238281 192.832031 106.140625 191.5 106.078125 C 190.167969 106.011719 188.835938 105.976562 187.5 105.976562 Z M 187.5 105.976562 " fill-opacity="1" fill-rule="nonzero"/></svg>