<svg xmlns="http://www.w3.org/2000/svg" xmlns:xlink="http://www.w3.org/1999/xlink" width="500" zoomAndPan="magnify" viewBox="0 0 375 374.999991" height="500" preserveAspectRatio="xMidYMid meet" version="1.0"><path fill="#5e94ff" d="M 47.09375 -0.871094 C 20.601562 -0.871094 -0.871094 20.601562 -0.871094 47.09375 L -0.871094 326.164062 C -0.871094 352.652344 20.601562 374.128906 47.09375 374.128906 L 326.164062 374.128906 C 352.652344 374.128906 374.128906 352.652344 374.128906 326.164062 L 374.128906 47.09375 C 374.128906 20.601562 352.652344 -0.871094 326.164062 -0.871094 Z M 47.09375 -0.871094 " fill-opacity="1" fill-rule="nonzero"/><path fill="#4dc4ff" d="M 47.09375 -0.871094 C 20.601562 -0.871094 -0.871094 20.601562 -0.871094 47.09375 L -0.871094 81.976562 C -0.871094 89.203125 4.984375 95.058594 12.210938 95.058594 L 361.046875 95.058594 C 368.269531 95.058594 374.128906 89.203125 374.128906 81.976562 L 374.128906 47.09375 C 374.128906 20.601562 352.652344 -0.871094 326.164062 -0.871094 Z M 47.09375 -0.871094 " fill-opacity="1" fill-rule="nonzero"/><path fill="#5485e5" d="M 186.628906 -0.871094 L 186.628906 374.128906 L 47.09375 374.128906 C 20.601562 374.128906 -0.871094 352.652344 -0.871094 326.164062 L -0.871094 47.09375 C -0.871094 20.601562 20.601562 -0.871094 47.09375 -0.871094 Z M 186.628906 -0.871094 " fill-opacity="1" fill-rule="evenodd"/><path fill="#45b0e5" d="M 186.628906 -0.871094 L 186.628906 95.058594 L 12.210938 95.058594 C 4.984375 95.058594 -0.871094 89.203125 -0.871094 81.976562 L -0.871094 47.09375 C -0.871094 20.601562 20.601562 -0.871094 47.09375 -0.871094 Z M 186.628906 -0.871094 " fill-opacity="1" fill-rule="evenodd"/><path fill="#eceff1" d="M 199.710938 134.300781 C 199.710938 127.078125 205.566406 121.222656 212.789062 121.222656 L 308.722656 121.222656 C 315.945312 121.222656 321.800781 127.078125 321.800781 134.300781 C 321.800781 141.527344 315.945312 147.382812 308.722656 147.382812 L 225.871094 147.382812 L 225.871094 208.429688 L 308.722656 208.429688 C 315.945312 208.429688 321.800781 214.289062 321.800781 221.511719 L 321.800781 308.722656 C 321.800781 315.945312 315.945312 321.800781 308.722656 321.800781 L 212.789062 321.800781 C 205.566406 321.800781 199.710938 315.945312 199.710938 308.722656 C 199.710938 301.496094 205.566406 295.640625 212.789062 295.640625 L 295.640625 295.640625 L 295.640625 234.59375 L 212.789062 234.59375 C 205.566406 234.59375 199.710938 228.734375 199.710938 221.511719 Z M 199.710938 134.300781 " fill-opacity="1" fill-rule="evenodd"/><path fill="#cfd8dc" d="M 34.011719 134.300781 C 34.011719 127.078125 39.867188 121.222656 47.09375 121.222656 L 169.1875 121.222656 C 176.410156 121.222656 182.265625 127.078125 182.265625 134.300781 C 182.265625 141.527344 176.410156 147.382812 169.1875 147.382812 L 121.222656 147.382812 L 121.222656 308.722656 C 121.222656 315.945312 115.363281 321.800781 108.140625 321.800781 C 100.914062 321.800781 95.058594 315.945312 95.058594 308.722656 L 95.058594 147.382812 L 47.09375 147.382812 C 39.867188 147.382812 34.011719 141.527344 34.011719 134.300781 Z M 34.011719 134.300781 " fill-opacity="1" fill-rule="evenodd"/></svg>