<svg xmlns="http://www.w3.org/2000/svg" xmlns:xlink="http://www.w3.org/1999/xlink" width="500" zoomAndPan="magnify" viewBox="0 0 375 374.999991" height="500" preserveAspectRatio="xMidYMid meet" version="1.0"><path fill="#ffffff" d="M 64.738281 98.214844 C 92.339844 60.332031 137.042969 35.714844 187.5 35.714844 C 233.90625 35.714844 275.453125 56.542969 303.292969 89.359375 C 278.457031 80.917969 251.398438 104.414062 260.195312 132.140625 L 271.859375 168.910156 L 240.304688 246.902344 L 206.5625 162.980469 L 194.878906 133.929688 L 205.355469 133.929688 C 215.21875 133.929688 223.214844 125.933594 223.214844 116.070312 C 223.214844 106.210938 215.21875 98.214844 205.355469 98.214844 L 151.785156 98.214844 C 141.921875 98.214844 133.929688 106.210938 133.929688 116.070312 C 133.929688 125.933594 141.921875 133.929688 151.785156 133.929688 L 156.386719 133.929688 L 170.6875 169.496094 L 137.5 248.523438 L 89.367188 133.929688 L 98.214844 133.929688 C 108.078125 133.929688 116.070312 125.933594 116.070312 116.070312 C 116.070312 106.210938 108.078125 98.214844 98.214844 98.214844 Z M 47.984375 127.621094 C 40.085938 145.992188 35.714844 166.234375 35.714844 187.5 C 35.714844 271.328125 103.671875 339.285156 187.5 339.285156 C 271.328125 339.285156 339.285156 271.328125 339.285156 187.5 C 339.285156 165.734375 334.707031 145.039062 326.453125 126.324219 C 326.082031 129.121094 325.355469 131.90625 324.261719 134.617188 L 307.378906 176.339844 L 256.808594 301.339844 C 254.078125 308.089844 247.519531 312.507812 240.234375 312.5 C 232.953125 312.492188 226.402344 308.0625 223.6875 301.304688 L 189.632812 216.617188 L 153.964844 301.558594 C 151.179688 308.1875 144.691406 312.5 137.5 312.5 C 130.308594 312.5 123.820312 308.1875 121.035156 301.558594 Z M 187.5 0 C 83.945312 0 0 83.945312 0 187.5 C 0 291.054688 83.945312 375 187.5 375 C 291.054688 375 375 291.054688 375 187.5 C 375 83.945312 291.054688 0 187.5 0 Z M 187.5 0 " fill-opacity="1" fill-rule="evenodd"/></svg>