<svg xmlns="http://www.w3.org/2000/svg" xmlns:xlink="http://www.w3.org/1999/xlink" width="500" zoomAndPan="magnify" viewBox="0 0 375 374.999991" height="500" preserveAspectRatio="xMidYMid meet" version="1.0"><path fill="#4e7d9d" d="M 71.15625 345.929688 C 218.011719 369.996094 338.839844 335.082031 300.746094 317.726562 C 300.746094 317.726562 311.148438 326.390625 289.300781 333.082031 C 247.734375 345.820312 116.273438 349.648438 79.777344 333.59375 C 66.660156 327.816406 91.28125 319.804688 99.003906 318.128906 C 107.078125 316.363281 111.699219 316.6875 111.699219 316.6875 C 97.0625 306.292969 17.292969 337.097656 71.15625 345.929688 Z M 71.15625 345.929688 " fill-opacity="1" fill-rule="nonzero"/><path fill="#4e7d9d" d="M 324.03125 336.664062 C 324.03125 336.664062 319.394531 348.671875 269.269531 358.21875 C 212.742188 368.972656 142.972656 367.71875 101.621094 360.820312 C 101.621094 360.804688 110.101562 367.902344 153.640625 370.722656 C 219.890625 375.015625 321.628906 368.351562 324.03125 336.664062 Z M 324.03125 336.664062 " fill-opacity="1" fill-rule="nonzero"/><path fill="#4e7d9d" d="M 237.90625 256.441406 C 195.332031 264.730469 170.742188 264.453125 139.59375 261.214844 C 115.53125 258.6875 131.28125 246.894531 131.28125 246.894531 C 68.96875 267.785156 165.964844 291.507812 253.023438 265.769531 C 243.78125 262.46875 237.90625 256.441406 237.90625 256.441406 Z M 237.90625 256.441406 " fill-opacity="1" fill-rule="nonzero"/><path fill="#4e7d9d" d="M 266.789062 272.480469 C 266.480469 273.347656 265.410156 274.292969 265.410156 274.308594 C 357.597656 249.808594 323.707031 187.949219 279.628906 203.617188 C 275.75 205.011719 273.71875 208.21875 273.71875 208.21875 C 273.71875 208.21875 276.167969 207.226562 281.613281 206.078125 C 303.90625 201.367188 335.816406 236.21875 266.789062 272.480469 Z M 266.789062 272.480469 " fill-opacity="1" fill-rule="nonzero"/><path fill="#f2941b" d="M 145.625 118.1875 C 128.476562 144.234375 154.058594 172.207031 188.910156 204.019531 C 175.3125 172.964844 129.203125 145.769531 188.925781 98.089844 C 263.410156 38.648438 225.175781 0 225.175781 0 C 240.617188 61.394531 170.816406 79.925781 145.625 118.1875 Z M 145.625 118.1875 " fill-opacity="1" fill-rule="nonzero"/><path fill="#f2941b" d="M 271.269531 75.960938 C 271.269531 75.945312 145.328125 107.742188 205.484375 177.816406 C 223.238281 198.472656 200.820312 217.066406 200.820312 217.066406 C 200.820312 217.066406 245.875 193.542969 225.175781 164.101562 C 205.84375 136.640625 191.019531 123.007812 271.269531 75.960938 Z M 271.269531 75.960938 " fill-opacity="1" fill-rule="nonzero"/><path fill="#4e7d9d" d="M 140.105469 287.601562 C 83.542969 303.578125 174.507812 336.601562 246.542969 305.40625 C 234.757812 300.757812 226.292969 295.398438 226.292969 295.398438 C 194.183594 301.566406 179.285156 302.046875 150.121094 298.667969 C 126.042969 295.878906 140.105469 287.601562 140.105469 287.601562 Z M 140.105469 287.601562 " fill-opacity="1" fill-rule="nonzero"/><path fill="#4e7d9d" d="M 250.261719 227.324219 C 257.332031 222.441406 267.101562 218.226562 267.101562 218.226562 C 267.101562 218.226562 239.316406 223.265625 211.640625 225.621094 C 177.78125 228.488281 141.421875 229.042969 123.1875 226.582031 C 79.992188 220.753906 146.863281 204.699219 146.863281 204.699219 C 146.863281 204.699219 120.894531 202.933594 88.988281 218.523438 C 51.203125 236.976562 182.382812 245.378906 250.261719 227.324219 Z M 250.261719 227.324219 " fill-opacity="1" fill-rule="nonzero"/></svg>