<svg xmlns="http://www.w3.org/2000/svg" xmlns:xlink="http://www.w3.org/1999/xlink" width="500" zoomAndPan="magnify" viewBox="0 0 375 374.999991" height="500" preserveAspectRatio="xMidYMid meet" version="1.0"><defs><clipPath id="f9f17d7a96"><path d="M 0 23.671875 L 375 23.671875 L 375 351.421875 L 0 351.421875 Z M 0 23.671875 " clip-rule="nonzero"/></clipPath><clipPath id="8da4d55ddb"><path d="M 0 23.671875 L 375 23.671875 L 375 103 L 0 103 Z M 0 23.671875 " clip-rule="nonzero"/></clipPath></defs><g clip-path="url(#f9f17d7a96)"><path fill="#7c73c0" d="M 0 41.378906 C 0 31.652344 7.882812 23.769531 17.605469 23.769531 L 357.394531 23.769531 C 367.117188 23.769531 375 31.652344 375 41.378906 L 375 333.714844 C 375 343.441406 367.117188 351.324219 357.394531 351.324219 L 17.605469 351.324219 C 7.882812 351.324219 0 343.441406 0 333.714844 Z M 0 41.378906 " fill-opacity="1" fill-rule="nonzero"/></g><g clip-path="url(#8da4d55ddb)"><path fill="#e0ae30" d="M 357.394531 23.769531 L 17.605469 23.769531 C 7.882812 23.769531 0 31.652344 0 41.378906 L 0 102.042969 L 375 102.042969 L 375 41.378906 C 375 31.652344 367.117188 23.769531 357.394531 23.769531 Z M 357.394531 23.769531 " fill-opacity="1" fill-rule="nonzero"/></g><path fill="#ffffff" d="M 44.894531 62.511719 C 44.894531 71.75 37.40625 79.242188 28.167969 79.242188 C 18.933594 79.242188 11.445312 71.75 11.445312 62.511719 C 11.445312 53.273438 18.933594 45.78125 28.167969 45.78125 C 37.40625 45.78125 44.894531 53.273438 44.894531 62.511719 Z M 44.894531 62.511719 " fill-opacity="1" fill-rule="nonzero"/><path fill="#ffffff" d="M 97.710938 62.511719 C 97.710938 71.75 90.222656 79.242188 80.984375 79.242188 C 71.75 79.242188 64.261719 71.75 64.261719 62.511719 C 64.261719 53.273438 71.75 45.78125 80.984375 45.78125 C 90.222656 45.78125 97.710938 53.273438 97.710938 62.511719 Z M 97.710938 62.511719 " fill-opacity="1" fill-rule="nonzero"/><path fill="#ffffff" d="M 150.527344 62.511719 C 150.527344 71.75 143.039062 79.242188 133.804688 79.242188 C 124.566406 79.242188 117.078125 71.75 117.078125 62.511719 C 117.078125 53.273438 124.566406 45.78125 133.804688 45.78125 C 143.039062 45.78125 150.527344 53.273438 150.527344 62.511719 Z M 150.527344 62.511719 " fill-opacity="1" fill-rule="nonzero"/><path fill="#ffffff" d="M 238.710938 160.207031 C 240.015625 167.28125 245.007812 179.386719 253.101562 188.269531 C 258.5 194.199219 265.304688 198.707031 271.796875 203.40625 C 287.933594 215.082031 314.160156 228.742188 338.464844 225.601562 C 341.363281 225.226562 342.757812 221.976562 340.910156 219.710938 C 331.613281 208.316406 320.355469 211.359375 312.574219 199.71875 C 311.964844 198.808594 312.414062 197.59375 313.460938 197.277344 C 320.085938 195.285156 329.445312 194.046875 336.707031 193.859375 C 337.449219 193.839844 337.847656 192.976562 337.351562 192.425781 C 327.855469 181.882812 312.167969 175.0625 304.710938 172.234375 C 302.136719 171.257812 299.84375 169.648438 298.394531 167.308594 C 283.511719 143.222656 272.871094 93.402344 225.285156 92.554688 C 224.523438 92.539062 223.78125 92.183594 223.320312 91.574219 L 222.667969 90.71875 C 219.835938 86.976562 215.898438 84.222656 211.414062 82.84375 L 209.695312 82.3125 C 207.875 81.753906 205.914062 81.898438 204.195312 82.722656 C 199.742188 84.851562 198.476562 90.601562 201.625 94.40625 L 209.554688 103.984375 C 210.003906 104.523438 210.265625 105.199219 210.371094 105.890625 C 211.101562 110.640625 215.101562 128.5625 223.410156 134.570312 C 223.769531 134.832031 223.914062 135.296875 223.742188 135.707031 C 220.144531 144.289062 213.292969 174.785156 231.550781 182.464844 C 232.226562 182.75 232.945312 182.0625 232.847656 181.335938 C 232.207031 176.632812 233.46875 167.289062 236.875 159.871094 C 237.25 159.054688 238.546875 159.324219 238.710938 160.207031 Z M 238.710938 160.207031 " fill-opacity="1" fill-rule="nonzero"/><path fill="#e0ae30" d="M 223.902344 98.328125 C 222.496094 96.335938 220.097656 95.539062 218.199219 96.308594 C 217.75 96.492188 217.65625 97.050781 217.9375 97.449219 L 222.738281 104.246094 C 223.019531 104.640625 223.578125 104.742188 223.902344 104.378906 C 225.257812 102.847656 225.3125 100.320312 223.902344 98.328125 Z M 223.902344 98.328125 " fill-opacity="1" fill-rule="nonzero"/><path fill="#e0ae30" d="M 314.261719 191.070312 C 318.636719 191.070312 322.183594 194.617188 322.183594 198.992188 L 322.183594 247.421875 C 322.183594 248.394531 322.972656 249.183594 323.945312 249.183594 L 356.515625 249.183594 C 360.890625 249.183594 364.4375 252.730469 364.4375 257.109375 C 364.4375 261.484375 360.890625 265.035156 356.515625 265.035156 L 323.945312 265.035156 C 314.21875 265.035156 306.339844 257.148438 306.339844 247.421875 L 306.339844 198.992188 C 306.339844 194.617188 309.882812 191.070312 314.261719 191.070312 Z M 314.261719 191.070312 " fill-opacity="1" fill-rule="evenodd"/><path fill="#e0ae30" d="M 109.15625 194.589844 C 113.53125 194.589844 117.078125 198.140625 117.078125 202.515625 L 117.078125 226.730469 L 143.484375 226.730469 L 143.484375 202.515625 C 143.484375 198.140625 147.03125 194.589844 151.410156 194.589844 C 155.785156 194.589844 159.332031 198.140625 159.332031 202.515625 L 159.332031 249.183594 C 159.332031 259.398438 151.054688 267.675781 140.84375 267.675781 L 109.15625 267.675781 C 104.777344 267.675781 101.230469 264.128906 101.230469 259.75 C 101.230469 255.375 104.777344 251.824219 109.15625 251.824219 L 140.84375 251.824219 C 142.304688 251.824219 143.484375 250.644531 143.484375 249.183594 L 143.484375 242.582031 L 114.4375 242.582031 C 107.144531 242.582031 101.230469 236.667969 101.230469 229.371094 L 101.230469 202.515625 C 101.230469 198.140625 104.777344 194.589844 109.15625 194.589844 Z M 109.15625 194.589844 " fill-opacity="1" fill-rule="evenodd"/><path fill="#e0ae30" d="M 23.976562 190.1875 C 28.953125 190.1875 33.519531 192.945312 35.839844 197.347656 L 52.757812 229.4375 L 69.109375 197.867188 C 71.554688 193.148438 76.421875 190.1875 81.734375 190.1875 C 89.585938 190.1875 95.949219 196.554688 95.949219 204.410156 L 95.949219 246.542969 C 95.949219 250.917969 92.402344 254.46875 88.027344 254.46875 C 83.652344 254.46875 80.105469 250.917969 80.105469 246.542969 L 80.105469 211.089844 L 61.402344 247.199219 C 57.804688 254.140625 47.886719 254.175781 44.238281 247.257812 L 26.410156 213.433594 L 26.410156 246.542969 C 26.410156 250.917969 22.863281 254.46875 18.484375 254.46875 C 14.109375 254.46875 10.5625 250.917969 10.5625 246.542969 L 10.5625 203.605469 C 10.5625 196.195312 16.570312 190.1875 23.976562 190.1875 Z M 23.976562 190.1875 " fill-opacity="1" fill-rule="evenodd"/><path fill="#e0ae30" d="M 165.492188 213.960938 C 165.492188 203.75 173.769531 195.472656 183.980469 195.472656 L 216.988281 195.472656 C 221.367188 195.472656 224.910156 199.019531 224.910156 203.394531 C 224.910156 207.773438 221.367188 211.320312 216.988281 211.320312 L 183.980469 211.320312 C 182.519531 211.320312 181.339844 212.503906 181.339844 213.960938 C 181.339844 215.421875 182.519531 216.605469 183.980469 216.605469 L 202.90625 216.605469 C 215.058594 216.605469 224.910156 226.460938 224.910156 238.617188 C 224.910156 250.773438 215.058594 260.632812 202.90625 260.632812 L 173.414062 260.632812 C 169.039062 260.632812 165.492188 257.082031 165.492188 252.707031 C 165.492188 248.328125 169.039062 244.78125 173.414062 244.78125 L 202.90625 244.78125 C 206.308594 244.78125 209.066406 242.023438 209.066406 238.617188 C 209.066406 235.214844 206.308594 232.453125 202.90625 232.453125 L 183.980469 232.453125 C 173.769531 232.453125 165.492188 224.175781 165.492188 213.960938 Z M 165.492188 213.960938 " fill-opacity="1" fill-rule="evenodd"/><path fill="#e0ae30" d="M 231.515625 210.441406 C 231.515625 201.6875 238.609375 194.589844 247.359375 194.589844 L 280.808594 194.589844 C 289.5625 194.589844 296.65625 201.6875 296.65625 210.441406 L 296.65625 242.140625 C 296.65625 250.894531 289.5625 257.988281 280.808594 257.988281 L 247.359375 257.988281 C 238.609375 257.988281 231.515625 250.894531 231.515625 242.140625 Z M 280.808594 210.441406 L 247.359375 210.441406 L 247.359375 242.140625 L 280.808594 242.140625 Z M 280.808594 210.441406 " fill-opacity="1" fill-rule="evenodd"/><path fill="#ffffff" d="M 253.664062 226.421875 C 256.507812 223.097656 261.507812 222.707031 264.832031 225.550781 L 301.363281 256.8125 C 304.6875 259.65625 305.078125 264.660156 302.234375 267.984375 C 299.390625 271.308594 294.390625 271.699219 291.066406 268.855469 L 254.535156 237.597656 C 251.207031 234.75 250.820312 229.75 253.664062 226.421875 Z M 253.664062 226.421875 " fill-opacity="1" fill-rule="evenodd"/></svg>